<?xml version="1.0" encoding="UTF-8" standalone="no"?>
<svg
  fill="#666666"
  viewBox="0 0 24 24"
  xmlns="http://www.w3.org/2000/svg">
  <g
    transform="matrix(0.08547559,0,0,0.08867583,1.6219154,5.3264423)"
    style="display:inline">
    <g>
      <g>
        <path d="m 22.408203,72.753906 c -1.199317,0.05214 -2.509748,0.4616 -4.019531,1.263672 a 1.0393508,1.0393508 0 0 1 -0.0078,0.0039 c -3.985779,2.083476 -5.93131,6.482137 -4.787109,10.373047 1.85e-4,6.03e-4 0.0018,0.0014 0.002,0.002 0.725836,2.357289 2.96302,6.353733 5.980469,10.669922 3.01822,4.317293 6.816529,9.010044 10.671875,13.013674 a 1.0393508,1.0393508 0 0 1 0.002,0.002 c 3.499923,3.64992 5.262397,5.43012 6.101562,6.81836 0.419583,0.69412 0.628813,1.48986 0.388672,2.18555 -0.238875,0.69202 -0.690493,1.05822 -1.121093,1.46289 -0.550849,0.54959 -2.114169,1.93788 -4.359375,3.9082 -2.253168,1.97731 -5.128619,4.47804 -8.080079,7.0293 -2.938692,2.5902 -5.704823,5.10675 -7.77539,7.07812 -1.03637,0.98673 -1.899491,1.83797 -2.515625,2.48438 -0.308067,0.3232 -0.554428,0.59705 -0.722656,0.79883 -0.168229,0.20177 -0.265427,0.38285 -0.216797,0.27343 a 1.0393508,1.0393508 0 0 1 -0.04102,0.082 c -0.124581,0.22425 -0.369466,0.98456 -0.521484,1.86133 -0.152019,0.87678 -0.248047,1.90529 -0.248047,2.83594 0,1.44226 0.117039,2.31152 0.470703,3.09961 0.353664,0.78809 0.996418,1.58594 2.208984,2.75 a 1.0393508,1.0393508 0 0 1 0.01563,0.0156 c 1.220587,1.22059 2.02172,1.86623 2.832032,2.22071 0.810311,0.35447 1.736471,0.47461 3.333984,0.47461 2.257728,0 2.83042,0.14249 5.550781,-1.78321 2.720361,-1.92569 7.313863,-5.95807 16.564453,-14.05859 a 1.0393508,1.0393508 0 0 1 0.0059,-0.004 l 12,-10.40039 a 1.0393508,1.0393508 0 0 1 1.125,-0.15429 l 6.097656,2.89843 0.002,0.002 c 6.813139,3.05909 19.125621,7.36913 23.646484,8.21679 0.907427,0.1609 1.772162,0.3971 2.466797,0.64258 0.34893,0.12331 0.654314,0.24789 0.917969,0.38086 0.238138,0.12011 0.444838,0.2096 0.712891,0.5625 0.141768,0.18134 0.22078,0.34657 0.24414,0.44336 0.02853,0.11819 0.0347,0.19822 0.03906,0.27539 0.0087,0.15435 0.0017,0.28923 -0.0098,0.44336 -0.02299,0.30827 -0.07191,0.6853 -0.144531,1.15234 -0.145233,0.9341 -0.384963,2.21345 -0.699219,3.76563 -0.628512,3.10436 -1.555794,7.28599 -2.607422,11.79297 -2.096841,9.18653 -3.118611,14.33122 -3.060547,17.44336 0.05804,3.11059 0.944248,4.18875 3.21875,6.125 3.945753,3.33197 11.154663,2.04762 13.507813,-2.48438 a 1.0393508,1.0393508 0 0 1 0.0078,-0.0137 c 0.05598,-0.10396 0.367492,-0.92957 0.699223,-2.04297 0.33172,-1.1134 0.73552,-2.59066 1.18359,-4.31445 0.89615,-3.44758 1.96947,-7.88874 3.01758,-12.48047 l 3.80078,-16.69922 a 1.0393508,1.0393508 0 0 1 0.98633,-0.80859 l 18.39453,-0.5 c 5.04546,-0.14987 9.81781,-0.32355 13.44531,-0.49805 1.81375,-0.0873 3.34197,-0.17458 4.46875,-0.25781 0.56339,-0.0416 1.02677,-0.0832 1.36719,-0.1211 0.34042,-0.0379 0.6028,-0.0951 0.55273,-0.0801 a 1.0393508,1.0393508 0 0 1 0.0469,-0.0117 c 0.59018,-0.14755 1.46014,-0.031 2.07617,0.46875 0.61603,0.49978 1.11094,1.2268 1.76758,2.39062 1.31327,2.32764 3.20361,6.46949 6.55469,13.92188 a 1.0393508,1.0393508 0 0 1 0.002,0.002 c 2.04359,4.58561 4.11344,8.95059 5.80273,12.2793 0.84465,1.66435 1.59589,3.07105 2.19336,4.10742 0.59748,1.03637 1.16518,1.77747 1.1543,1.76758 a 1.0393508,1.0393508 0 0 1 0.004,0.004 c 0.91842,0.84189 3.05675,1.7437 5.6875,2.0293 2.02154,0.14742 3.03028,0.16315 3.76367,-0.0937 0.73643,-0.25797 1.477,-0.87153 2.91015,-2.30469 2.3158,-2.31579 3.16737,-3.71029 2.7168,-6.93359 -0.45057,-3.2233 -2.4841,-8.26432 -6.42773,-16.90039 -1.80096,-3.9521 -3.42693,-7.55432 -4.5918,-10.18555 -0.58243,-1.31561 -1.04831,-2.38781 -1.36719,-3.14648 -0.15943,-0.37934 -0.28177,-0.67858 -0.36719,-0.9043 -0.0427,-0.11286 -0.0756,-0.20382 -0.10546,-0.30273 -0.0149,-0.0495 -0.0309,-0.0945 -0.0469,-0.1875 -0.008,-0.0465 -0.0183,-0.10157 -0.0156,-0.21875 0.001,-0.0586 0.004,-0.13408 0.0351,-0.25 0.0155,-0.058 0.0798,-0.20645 0.0801,-0.20703 3e-4,-5.9e-4 0.19102,-0.26329 0.19141,-0.26368 a 1.0393508,1.0393508 0 0 1 0.26953,-0.19531 c 0.23639,-0.11819 0.32009,-0.13578 0.62109,-0.25391 0.30101,-0.11812 0.70888,-0.27762 1.20117,-0.4707 0.9846,-0.38616 2.30494,-0.90952 3.7461,-1.50586 a 1.0393508,1.0393508 0 0 1 0.0195,-0.008 c 7.13122,-2.77325 14.58153,-6.54725 21.02148,-10.60937 a 1.0393508,1.0393508 0 0 1 0.0117,-0.008 c 1.57182,-0.96337 3.06456,-1.7992 4.24414,-2.38281 0.58979,-0.29181 1.09864,-0.51987 1.5293,-0.67578 0.21533,-0.078 0.4083,-0.13977 0.61914,-0.17969 0.19735,-0.0374 0.43476,-0.0983 0.85742,0.0879 0.11024,0.0484 0.23627,0.0987 0.30078,0.14063 0.0976,0.0634 0.19742,0.13493 0.31641,0.22265 0.23797,0.17544 0.54271,0.41221 0.91601,0.71094 0.74662,0.59745 1.76344,1.4397 2.98047,2.46875 2.43407,2.05811 5.66449,4.86294 9.07227,7.91992 3.44005,2.9912 6.80672,5.8581 9.43164,8.03516 1.31421,1.08998 2.4444,2.00805 3.29883,2.67773 0.85442,0.66969 1.56368,1.14219 1.54101,1.13086 a 1.0393508,1.0393508 0 0 1 0.0703,0.0391 c 0.25968,0.15582 1.08575,0.42807 2.00976,0.5918 0.92402,0.16374 1.9784,0.25977 2.85547,0.25977 6.046,0 10.27068,-6.61559 7.8418,-12.46289 a 1.0393508,1.0393508 0 0 1 -0.0195,-0.0488 c 0.0197,0.0553 -0.42965,-0.68982 -1.16016,-1.52735 -0.73051,-0.83752 -1.7556,-1.91433 -2.99414,-3.14648 -2.47708,-2.46431 -5.81444,-5.55232 -9.44727,-8.6875 a 1.0393508,1.0393508 0 0 1 -0.002,-0.002 l -13,-11.30078 a 1.0393508,1.0393508 0 0 1 -0.1543,-1.40235 l 4.19922,-5.699216 a 1.0393508,1.0393508 0 0 1 0.0137,-0.01953 c 2.86423,-3.703739 5.20827,-7.382791 6.82227,-10.52539 1.614,-3.142599 2.46094,-5.815654 2.46094,-7.138672 0,-7.422776 -8.21025,-11.629326 -14.69532,-7.427734 a 1.0393508,1.0393508 0 0 1 -0.006,0.0039 c -0.23521,0.149684 -1.09542,1.046307 -1.9414,2.21875 -0.84598,1.172443 -1.78051,2.647584 -2.61328,4.117187 -6.10389,11.562332 -22.13123,25.622271 -36.37305,32.132811 -16.51744,7.55371 -31.23656,10.49458 -52.63086,10.39453 -21.89276,0 -37.39817,-3.03406 -53.427733,-10.39257 l -0.0059,-0.002 C 55.461948,106.75064 41.189589,94.825889 34.517578,83.949219 l -0.0039,-0.0059 c -2.562605,-4.12179 -4.737141,-7.022331 -6.695313,-8.808593 -1.959252,-1.787249 -3.61198,-2.459041 -5.410156,-2.38086 z" />
      </g>
    </g>
  </g>
</svg>
