<svg
   fill = "none"
   stroke="#000"
   stroke-width = "40"
   height="800px"
   width="800px"
   viewBox="0 0 471.701 471.701"
   xmlns="http://www.w3.org/2000/svg">
   <path
      d="m 235.8505,121.19 c 0.26305,-0.31894 0.52566,-0.63659 0.78784,-0.95295 9.27373,-11.19026 18.0047,-20.76696 26.3916,-28.851621 30.99115,-29.874359 57.2841,-39.375743 88.9036,-34.635104 62.3386,9.346285 85.04419,55.568915 90.84942,82.018255 0.99811,4.54754 1.49663,8.51055 1.6111,11.60111 0.78022,21.06587 7.4442,45.83314 -43.94366,95.35961 C 356.05986,288.5119 260.244,385.53082 235.8505,410.26792 211.457,385.53082 115.64114,288.5119 71.2506,245.7293 19.86274,196.20283 26.52672,171.43556 27.30694,150.36969 c 0.11447,-3.09056 0.61299,-7.05357 1.6111,-11.60111 5.80523,-26.44934 28.51082,-72.67197 90.84942,-82.018255 31.6195,-4.740639 57.91245,4.760745 88.9036,34.635104 8.3869,8.084661 17.11787,17.661361 26.3916,28.851621 0.26218,0.31636 0.52479,0.63401 0.78784,0.95295 z"/>
</svg>
