<svg viewBox="0 0 28 27" fill="none" xmlns="http://www.w3.org/2000/svg">
<path d="M24.0668 17.7163C23.9761 17.6125 23.8869 17.5087 23.7994 17.4085C22.5963 16.0273 21.8684 15.1936 21.8684 11.2835C21.8684 9.25913 21.3582 7.59811 20.3525 6.35235C19.6109 5.43204 18.6085 4.73389 17.2872 4.21794C17.2702 4.20896 17.255 4.19719 17.2424 4.18316C16.7671 2.67267 15.4667 1.66101 14 1.66101C12.5332 1.66101 11.2333 2.67267 10.7581 4.1816C10.7454 4.19511 10.7304 4.20652 10.7138 4.21534C7.63051 5.4201 6.13207 7.73151 6.13207 11.2819C6.13207 15.1936 5.40527 16.0273 4.20105 17.4069C4.11355 17.5071 4.02441 17.6088 3.93363 17.7147C3.69913 17.9832 3.55056 18.3097 3.50549 18.6558C3.46042 19.0019 3.52075 19.3529 3.67933 19.6675C4.01676 20.3423 4.7359 20.7611 5.55676 20.7611H22.4492C23.2662 20.7611 23.9804 20.3428 24.3189 19.6711C24.4782 19.3565 24.5391 19.0051 24.4944 18.6587C24.4497 18.3122 24.3014 17.9852 24.0668 17.7163Z" fill="white"/>
<path d="M13.9999 24.9152C14.7902 24.9146 15.5655 24.711 16.2438 24.326C16.922 23.941 17.4777 23.3889 17.8521 22.7284C17.8698 22.6967 17.8785 22.6613 17.8774 22.6255C17.8764 22.5897 17.8656 22.5548 17.8461 22.5241C17.8266 22.4934 17.7991 22.4681 17.7662 22.4505C17.7334 22.4329 17.6963 22.4237 17.6585 22.4237H10.3424C10.3047 22.4236 10.2675 22.4327 10.2346 22.4503C10.2016 22.4679 10.174 22.4932 10.1545 22.5239C10.1349 22.5546 10.1241 22.5895 10.123 22.6254C10.1219 22.6612 10.1306 22.6967 10.1483 22.7284C10.5227 23.3889 11.0783 23.9409 11.7564 24.3259C12.4345 24.7109 13.2098 24.9145 13.9999 24.9152Z" fill="white"/>
</svg>
