<svg class="svg-icon" style="width: 1em; height: 1em;vertical-align: middle;fill: currentColor;overflow: hidden;" viewBox="0 0 1024 1024" version="1.1" xmlns="http://www.w3.org/2000/svg"><path d="M379.744 450c17.664 0 32-14.336 32-32l0-124.8c0-55.792 45.392-101.2 101.184-101.2 55.792 0 101.2 45.408 101.2 101.2l0 124.8c0 17.664 14.32 32 32 32 17.664 0 32-14.336 32-32l0-124.8C678.144 202.112 604.032 128 512.928 128c-91.072 0-165.184 74.112-165.184 165.2l0 124.8C347.744 435.664 362.08 450 379.744 450z"  /><path d="M880 378.096 710.144 378.096l0 39.904c0 35.296-28.704 64-64 64s-64-28.704-64-64l0-39.904-138.384 0 0 39.904c0 35.296-28.704 64-64 64s-64-28.704-64-64l0-39.904L144 378.096c-8.832 0-14.288 6.96-12.192 15.536l111.968 455.952C250.528 875.216 277.504 896 304 896l416 0c26.528 0 53.472-20.784 60.256-46.416l111.936-455.952C894.288 385.04 888.848 378.096 880 378.096z"  /></svg>