<?xml version="1.0" encoding="UTF-8" standalone="no"?>
<svg
   style="overflow:hidden;fill:currentColor"
   viewBox="0 0 100 100"
   version="1.1"
   id="svg1"
   xmlns="http://www.w3.org/2000/svg">
  <defs
     id="defs1" />
  <path
     id="path1"
     style="fill:#ffffff;fill-opacity:1;stroke:none;stroke-width:5.00374;stroke-dasharray:none;stroke-opacity:1"
     d="m 50.303087,0.19390956 c -17.296657,0 -31.374045,14.07738444 -31.374045,31.37404144 0,10.579913 5.268838,19.94569 13.319529,25.630492 -14.56117,6.555154 -24.9172587,20.778639 -25.9227012,37.51633 -1.38e-5,1.95e-4 1.48e-5,4.88e-4 0,7.8e-4 -0.1685211,2.789874 2.1072947,5.231687 4.9199382,5.231687 2.57429,0 4.747358,-2.026575 4.918964,-4.6006 a 2.5527081,2.5527081 0 0 0 0.0013,-0.02076 c 1.049107,-17.946708 15.907793,-32.14683 34.137011,-32.14683 18.22921,0 33.088774,14.200629 34.149063,32.148302 l -1.94e-4,-0.0049 c 0.147944,2.588961 2.34681,4.624777 4.920424,4.624777 2.812652,0 5.088461,-2.441796 4.919945,-5.231676 v -6.6e-4 C 93.286769,77.976049 82.929477,63.751835 68.366885,57.197221 76.409727,51.512279 81.677131,42.14745 81.677131,31.567951 81.677131,14.271294 67.599742,0.19390956 50.303087,0.19390956 Z m 0,9.84915944 c 11.916032,0 21.524879,9.608853 21.524879,21.524882 0,11.916032 -9.608813,21.524638 -21.524879,21.524638 -11.916065,0 -21.524883,-9.608606 -21.524883,-21.524638 0,-11.916029 9.608853,-21.524882 21.524883,-21.524882 z" />
</svg>
